<?xml version="1.0" encoding="utf-8"?>
<!-- Generator: Adobe Illustrator 21.0.2, SVG Export Plug-In . SVG Version: 6.00 Build 0)  -->
<svg version="1.1" xmlns="http://www.w3.org/2000/svg" xmlns:xlink="http://www.w3.org/1999/xlink" x="0px" y="0px"
	 viewBox="0 0 1524.7 344" style="enable-background:new 0 0 1524.7 344;" xml:space="preserve">
<style type="text/css">
	.st0{fill:#FFCB05;}
	.st1{fill:#0000FF;}
	.st2{fill:#FFFFFF;stroke:#1D1D1B;stroke-width:0.2835;stroke-miterlimit:10;}
	.st3{fill:#1D1D1B;}
	.st4{fill:#701C75;}
	.st5{fill:#FFFFFF;}
	.st6{fill:#241F0C;}
	.st7{fill:#181716;}
	.st8{fill:#FF0000;}
	.st9{fill:#00FF00;}
</style>
<g id="Artwork">
	<rect class="st0" width="1524.7" height="344"/>
	<g>
		<g>
			<path class="st1" d="M426.6,113.7l21.7,0.5v118.1l-21.7-0.5V113.7z"/>
			<path class="st1" d="M547.7,152H569v80.2h-21.3l-0.3-10h-0.3c-9.1,7.4-21.4,12-32.7,12c-29,0-44.8-18.1-44.8-42.1
				c0-23.4,18.5-42.1,46.5-42.1c10.9,0,23.2,4.3,31,12h0.3L547.7,152z M518.9,167.5c-17.2,0-27.2,10.6-27.2,24.6
				c0,14,10,24.6,27.2,24.6c15.7,0,28.3-10,28.3-24.6S534.5,167.5,518.9,167.5z"/>
			<path class="st1" d="M647.7,150c28,0,46.5,18.7,46.5,42.1c0,23.4-18.5,42.1-46.5,42.1c-10.9,0-23.2-4.1-31-12v41.5h-21.9V152
				h21.3l0.3,10h0.3C624.5,154.3,636.8,150,647.7,150z M645,216.7c17.2,0,27.2-10.6,27.2-24.6c0-14-10-24.6-27.2-24.6
				c-15.7,0-28.3,10-28.3,24.6S629.3,216.7,645,216.7z"/>
			<path class="st1" d="M761.7,234.2c-30.1,0-50.8-17.8-50.8-42.1c0-24.2,20.7-42.1,50.8-42.1s50.8,17.9,50.8,42.1
				C812.4,216.4,791.8,234.2,761.7,234.2z M761.7,167.5c-17.6,0-28.7,10.3-28.7,24.6c0,14.3,11.1,24.6,28.7,24.6
				c17.6,0,28.9-10.3,28.9-24.6C790.6,177.8,779.3,167.5,761.7,167.5z"/>
			<path class="st1" d="M903,161.3l-11.2,14.3c-6.5-4.6-17.9-8.7-26.6-8.7c-7.4,0-13.4,2-13.4,6.7c0,14.3,51.8,6.4,51.8,35
				c0,15.7-14.7,25.7-37.8,25.7c-14.1,0-30.1-5.5-40.4-13.1l12.2-15.5c8.1,6.2,21.1,11.5,31,11.5c6.8,0,13.8-1.4,13.8-6.8
				c0-14.1-52-4.7-52-34.6c0-14.3,15.5-25.7,35-25.7C877.2,150,893,153.5,903,161.3z"/>
			<path class="st1" d="M967,210.5l8.1,17.3c-7,3.8-15.2,6.4-22.9,6.4c-19.8,0-24.9-12.5-24.9-30.4v-33.1h-11.4V152h11.4v-24.6h21.9
				V152h22.2v18.7h-22.2v30.2c0,8.1,0.6,13.7,7.7,13.7C960.2,214.6,964.3,212.6,967,210.5z"/>
			<path class="st1" d="M1078.5,193.9c0,1.8-0.2,4.9-0.3,6.7h-71.4c3.6,10.6,14.3,16.9,28.3,16.9c9.3,0,19.5-3,28.3-8.1l9,15.8
				c-12.5,6.1-24,9-38.4,9c-29.8,0-50.5-15.8-50.5-42.1c0-23.9,20.7-42.1,49.5-42.1C1055.3,150,1078.5,164.5,1078.5,193.9z
				 M1055.3,185.4c-1.4-11.9-11.7-18.7-23.9-18.7c-13.4,0-22.6,7.4-25.4,18.7H1055.3z"/>
			<path class="st1" d="M1112,207.9c7.9,0,14.4,5.8,14.4,12.8c0,7-6.5,12.8-14.4,12.8s-14.4-5.8-14.4-12.8
				C1097.5,213.7,1104.1,207.9,1112,207.9z"/>
			<path class="st1" d="M1171.8,162.6c7.7-7.9,18.8-12.6,29.8-12.6c26,0,34.5,14,34.5,36.6v45.6h-21.7v-41.9
				c0-14.6-4.9-22.8-18.8-22.8c-16.6,0-23.7,13.8-23.7,29.3v35.4h-21.9V152h21.3l0.2,10.6H1171.8z"/>
			<path class="st1" d="M1344.9,193.9c0,1.8-0.2,4.9-0.3,6.7h-71.4c3.6,10.6,14.3,16.9,28.3,16.9c9.3,0,19.5-3,28.3-8.1l9,15.8
				c-12.5,6.1-24,9-38.4,9c-29.8,0-50.5-15.8-50.5-42.1c0-23.9,20.7-42.1,49.5-42.1C1321.7,150,1344.9,164.5,1344.9,193.9z
				 M1321.7,185.4c-1.4-11.9-11.7-18.7-23.9-18.7c-13.4,0-22.6,7.4-25.4,18.7H1321.7z"/>
			<path class="st1" d="M1403,210.5l8.1,17.3c-7,3.8-15.2,6.4-22.9,6.4c-19.8,0-24.9-12.5-24.9-30.4v-33.1h-11.4V152h11.4v-24.6
				h21.9V152h22.2v18.7H1385v30.2c0,8.1,0.6,13.7,7.7,13.7C1396.1,214.6,1400.2,212.6,1403,210.5z"/>
		</g>
		<path class="st1" d="M351.7,81.9c-2.8,0-4.7,0.5-9,3l-96.8,58.8l-62-46.5c-9.7-6.8-16-7.9-17.4-7.9l125,0
			c7.5,0,13.6-5.8,13.6-13.3s-6.1-13.9-13.6-13.9l-159,0h0h0c-0.7,0-1.1-0.1-2.8,0.3c-4.7,1-8.6,4.3-10.1,9
			c-1.9,5.6,0.1,11.7,4.7,15.2l112.6,84.5c2.4,1.8,5.3,2.7,8.2,2.7c2.4,0,4.9-0.7,7.1-2l91.1-55.3c0,0-4.9,4.4-5.1,10.4v73.8
			c0,3.5-3.6,4.5-5.7,4.5H146.5c-2.1,0-5.7-0.9-5.7-4.5v-68c0-7.5-6.1-13.6-13.6-13.6s-13.6,6.1-13.6,13.6v68
			c0,17.8,14.4,31.7,32.9,31.7h185.9c18.4,0,32.9-13.9,32.9-31.7V95.5C365.3,88,359.2,81.8,351.7,81.9z"/>
	</g>
</g>
<g id="Infos">
</g>
</svg>
